<svg width="112" height="112" viewBox="0 0 112 112" fill="none" xmlns="http://www.w3.org/2000/svg">
    <circle cx="56" cy="56" r="55.125" fill="#F9F9FA" stroke="#ECEDF0" stroke-width="1.75"/>
    <path fill-rule="evenodd" clip-rule="evenodd" d="M56 58.625C62.5215 58.625 67.8125 53.334 67.8125 46.8125C67.8125 40.291 62.5215 35 56 35C49.4785 35 44.1875 40.291 44.1875 46.8125C44.1875 53.334 49.4785 58.625 56 58.625ZM66.5 61.25H61.9801C60.159 62.0867 58.1328 62.5625 56 62.5625C53.8672 62.5625 51.8492 62.0867 50.0199 61.25H45.5C39.7004 61.25 35 65.9504 35 71.75V73.0625C35 75.2363 36.7637 77 38.9375 77H73.0625C75.2363 77 77 75.2363 77 73.0625V71.75C77 65.9504 72.2996 61.25 66.5 61.25Z" fill="#676C7A"/>
</svg>
